<svg width="8" height="6" viewBox="0 0 8 6" fill="none" xmlns="http://www.w3.org/2000/svg">
<path d="M3.34025 5.70194C3.30642 5.66898 3.16175 5.54453 3.04275 5.4286C2.29433 4.74895 1.06933 2.97593 0.695417 2.04794C0.635333 1.90701 0.508167 1.5507 0.5 1.36033C0.5 1.17791 0.542 1.00402 0.627167 0.838084C0.746167 0.631232 0.933417 0.465296 1.1545 0.374372C1.30792 0.31584 1.767 0.224916 1.77517 0.224916C2.27742 0.133992 3.0935 0.0839844 3.99533 0.0839844C4.85458 0.0839844 5.63742 0.133992 6.14725 0.208436C6.15542 0.216961 6.72592 0.307884 6.92133 0.407332C7.27833 0.589748 7.5 0.946056 7.5 1.32737V1.36033C7.49125 1.60866 7.26958 2.13091 7.26142 2.13091C6.88692 3.00889 5.722 4.74099 4.94792 5.43713C4.94792 5.43713 4.749 5.63318 4.62475 5.71842C4.44625 5.8514 4.22517 5.91732 4.00408 5.91732C3.75733 5.91732 3.5275 5.84287 3.34025 5.70194Z" fill="#696974"/>
</svg>
